<svg xmlns="http://www.w3.org/2000/svg" xmlns:xlink="http://www.w3.org/1999/xlink" id="car" width="64" height="64" viewBox="9.48 38.388 83.522 29.019">
  <defs>
    <linearGradient xlink:href="#a" id="c" x1="2027.275" x2="1991.151" y1="519.045" y2="508.438" gradientTransform="translate(0 156.27)" gradientUnits="userSpaceOnUse"></linearGradient>
    <linearGradient id="a">
      <stop offset="0" stop-color="#ff8915"></stop>
      <stop offset="1" stop-color="#ff8915" stop-opacity="0"></stop>
    </linearGradient>
    <linearGradient xlink:href="#b" id="d" x1="2006.931" x2="2054.856" y1="540.612" y2="510.913" gradientTransform="translate(0 156.27)" gradientUnits="userSpaceOnUse"></linearGradient>
    <linearGradient id="b">
      <stop offset="0" stop-color="#fff306"></stop>
      <stop offset="1" stop-color="#fff306" stop-opacity="0"></stop>
    </linearGradient>
  </defs>
  <path fill="#ffc215" d="M62.43 38.391c-9.89 0-18.193 4.961-20.567 11.678H36.6a4.716 4.716 0 0 0-4.73 4.73v3.148a4.726 4.726 0 0 0 4.73 4.741h2.521a7.683 7.683 0 0 1-.035-.755 7.447 7.447 0 0 1 7.448-7.448 7.447 7.447 0 0 1 7.449 7.448c0 .253-.01.508-.035.755h16.07a7.683 7.683 0 0 1-.035-.755 7.447 7.447 0 0 1 7.448-7.448 7.447 7.447 0 0 1 7.448 7.448c0 .253-.01.508-.035.755h3.428a4.726 4.726 0 0 0 4.73-4.74v-3.15a4.716 4.716 0 0 0-4.73-4.729H83.01C80.632 43.352 72.32 38.391 62.43 38.391z"></path>
  <path fill="#5d5e63" fill-rule="evenodd" d="M51.935 61.93a5.403 5.403 0 1 1-10.805 0 5.403 5.403 0 0 1 10.805 0zM82.829 61.93a5.403 5.403 0 1 1-10.805 0 5.403 5.403 0 0 1 10.805 0z"></path>
  <path fill="url(#c)" d="M2021.781 641.583c-26.599 0-48.928 13.342-55.312 31.406h-14.157a12.684 12.684 0 0 0-12.718 12.72v8.5a12.684 12.684 0 0 0 12.718 12.718h6.782a20.664 20.664 0 0 1-.094-2.031c0-11.066 8.966-20.032 20.031-20.032s20.031 8.966 20.031 20.032c0 .68-.027 1.367-.094 2.03h5.875l31.563-63.968c-4.668-.905-9.57-1.375-14.625-1.375z" opacity=".413" transform="translate(-689.329 -200.172)scale(.37183)"></path>
  <path fill="url(#d)" d="M2021.781 641.583c-17.03 0-32.316 5.48-42.781 14.156l56.813 51.188h6.374a20.664 20.664 0 0 1-.093-2.031c0-11.066 8.966-20.032 20.03-20.032 11.066 0 20.032 8.966 20.032 20.032 0 .68-.027 1.367-.094 2.03h9.219a12.684 12.684 0 0 0 12.718-12.718v-8.5a12.684 12.684 0 0 0-12.718-12.719h-14.157c-6.391-18.064-28.745-31.406-55.343-31.406z" opacity=".466" transform="translate(-689.329 -200.172)scale(.37183)"></path>
  <path fill="#2e8cea" d="M60.2 42.175c-6.176.612-11.277 3.726-13.352 7.902H60.2v-7.902zm4.461 0v7.902h13.351c-2.078-4.179-7.17-7.292-13.35-7.902z"></path>
  <path fill="#d34836" fill-rule="evenodd" d="M86.96 50.065c-.086.304-.14.621-.14.953a3.516 3.516 0 0 0 3.52 3.52h2.65a4.722 4.722 0 0 0-4.718-4.473H86.96z"></path>
  <path fill="#ff5d42" fill-rule="evenodd" d="M37.901 50.065c.085.304.14.621.14.953a3.516 3.516 0 0 1-3.521 3.52h-2.65a4.722 4.722 0 0 1 4.718-4.473h1.313z"></path>
  <path fill="#4c4c50" fill-rule="evenodd" d="m50.74 58.54-5.333 8.668c.363.077.741.128 1.127.128a5.403 5.403 0 0 0 4.207-8.796z" opacity=".413"></path>
  <path fill="#4c4c50" fill-rule="evenodd" d="m49.64 66.354-8.293-5.9a5.44 5.44 0 0 0-.202 1.117 5.403 5.403 0 0 0 8.496 4.783z" opacity=".466"></path>
  <path fill="#4c4c50" fill-rule="evenodd" d="m81.12 65.875-9.037-4.679c-.05.368-.073.749-.045 1.133a5.403 5.403 0 0 0 9.083 3.546z" opacity=".413"></path>
  <path fill="#4c4c50" fill-rule="evenodd" d="m76.224 67.167-1.174-10.11a5.44 5.44 0 0 0-.964.597 5.403 5.403 0 0 0 2.138 9.513z" opacity=".466"></path>
  <path fill="none" stroke="#fccd00" stroke-linecap="round" stroke-linejoin="round" stroke-width="1.859" d="M45.318 40.815H14.924m24.073 4.648H19.12m11.976 4.927h-14.62m-1.447-4.927H9.48M28.96 55.53h-5.548"></path>
</svg>
